<?xml version="1.0" standalone="no"?><!DOCTYPE svg PUBLIC "-//W3C//DTD SVG 1.1//EN" "http://www.w3.org/Graphics/SVG/1.1/DTD/svg11.dtd"><svg class="icon" width="16px" height="16.00px" viewBox="0 0 1024 1024" version="1.1" xmlns="http://www.w3.org/2000/svg"><path fill="#ffffff" d="M763 75.6H259.7c-71.6 0-129.8 58.2-129.8 129.8V654c0 71.6 58.2 129.8 129.8 129.8h103.8l116.6 146.4c7.5 9.4 19.1 15 31.1 15h0.8c12.3-0.2 24-6.3 31.3-16.2l106.6-145.1H763c71.6 0 129.8-58.2 129.8-129.8V205.4c0-71.6-58.2-129.8-129.8-129.8zM820.8 654c0 31.9-25.9 57.8-57.8 57.8H633.5c-12.6 0-24.6 6.1-32 16.2l-91.3 124.3-100.1-125.5c-7.6-9.5-18.9-15-31.1-15H259.7c-31.9 0-57.8-25.9-57.8-57.8V205.4c0-31.9 25.9-57.8 57.8-57.8H763c31.9 0 57.8 25.9 57.8 57.8V654z" /></svg>